<svg width="181" height="48" viewBox="0 0 181 48" fill="none" xmlns="http://www.w3.org/2000/svg">
<path d="M96.9502 22.2578C96.4229 18.7422 93.6982 16.5889 90.0068 16.5889C85.041 16.5889 81.7891 20.4121 81.7891 27.0918C81.7891 33.9473 85.085 37.5947 89.9629 37.5947C93.6104 37.5947 96.291 35.5732 96.9502 32.1455L103.63 32.1895C102.883 38.0781 97.9609 43.4395 89.875 43.4395C81.3496 43.4395 75.0654 37.4629 75.0654 27.0918C75.0654 16.7207 81.4814 10.7441 89.875 10.7441C97.2139 10.7441 102.751 14.9629 103.63 22.2578H96.9502ZM106.97 36.3203C106.97 31.0029 111.276 29.2451 115.847 28.9814C117.561 28.8716 120.769 28.7178 121.779 28.6738V26.7402C121.735 24.7627 120.373 23.5762 117.956 23.5762C115.759 23.5762 114.353 24.5869 114.001 26.2129H107.805C108.2 22.082 111.804 18.8301 118.132 18.8301C123.317 18.8301 128.239 21.1592 128.239 26.916V43H122.087V39.7041H121.911C120.725 41.9014 118.483 43.4395 114.924 43.4395C110.354 43.4395 106.97 41.0664 106.97 36.3203ZM113.21 36.1445C113.21 37.9902 114.704 38.957 116.77 38.957C119.714 38.957 121.823 36.9795 121.779 34.4746V32.7168C120.791 32.7607 118.022 32.9146 116.901 33.0244C114.66 33.2441 113.21 34.2988 113.21 36.1445ZM154.475 19.1377L146.081 43H138.786L130.437 19.1377H137.292L142.302 36.2764H142.565L147.575 19.1377H154.475ZM167.658 43.4834C160.363 43.4834 155.881 38.7373 155.881 31.1787C155.881 23.7959 160.407 18.8301 167.395 18.8301C173.679 18.8301 178.601 22.7852 178.601 30.915V32.7607H162.297C162.297 36.3643 164.45 38.6055 167.79 38.6055C169.987 38.6055 171.569 37.6387 172.229 36.1885H178.425C177.502 40.583 173.547 43.4834 167.658 43.4834ZM162.297 28.6738H172.448C172.448 25.7734 170.427 23.708 167.526 23.708C164.538 23.708 162.407 25.9272 162.297 28.6738Z" fill="#222222"/>
<path d="M1.04 43L7.08 14.44H14.8C18.2933 14.44 21 15.3733 22.92 17.24C24.8667 19.08 25.84 21.7467 25.84 25.24C25.84 27.4 25.6133 29.4 25.16 31.24C24.7067 33.08 24.04 34.7333 23.16 36.2C22.28 37.64 21.1867 38.8667 19.88 39.88C18.6 40.8933 17.12 41.6667 15.44 42.2C13.76 42.7333 11.8933 43 9.84 43H1.04ZM10.12 38C11.4267 38 12.6 37.7867 13.64 37.36C14.68 36.9067 15.5733 36.2933 16.32 35.52C17.0933 34.7467 17.7333 33.84 18.24 32.8C18.7467 31.76 19.12 30.6267 19.36 29.4C19.6 28.1467 19.72 26.8667 19.72 25.56C19.72 23.4533 19.2267 21.9067 18.24 20.92C17.28 19.9067 15.9467 19.4 14.24 19.4H12L8.04 38H10.12ZM37.4703 43.4C35.7636 43.4 34.257 43.0933 32.9503 42.48C31.6703 41.8667 30.657 40.9333 29.9103 39.68C29.1903 38.4267 28.8303 36.8533 28.8303 34.96C28.8303 33.12 29.0836 31.36 29.5903 29.68C30.1236 27.9733 30.897 26.4533 31.9103 25.12C32.9503 23.7867 34.2303 22.7333 35.7503 21.96C37.2703 21.16 39.0303 20.76 41.0303 20.76C43.4836 20.76 45.3103 21.32 46.5103 22.44C47.737 23.56 48.3503 24.9867 48.3503 26.72C48.3503 27.8667 48.0836 28.9067 47.5503 29.84C47.0436 30.7733 46.2703 31.5733 45.2303 32.24C44.217 32.9067 42.9236 33.4267 41.3503 33.8C39.777 34.1467 37.9236 34.32 35.7903 34.32H34.7903C34.7636 34.48 34.7503 34.6267 34.7503 34.76C34.7503 34.8667 34.7503 34.9867 34.7503 35.12C34.7503 36.2933 35.0836 37.2267 35.7503 37.92C36.4436 38.6133 37.4036 38.96 38.6303 38.96C39.777 38.96 40.817 38.8267 41.7503 38.56C42.6836 38.2933 43.7903 37.8667 45.0703 37.28V41.72C43.9236 42.28 42.7636 42.7067 41.5903 43C40.417 43.2667 39.0436 43.4 37.4703 43.4ZM36.3103 30.36C37.8303 30.36 39.057 30.2 39.9903 29.88C40.9236 29.56 41.6036 29.1333 42.0303 28.6C42.4836 28.04 42.7103 27.4533 42.7103 26.84C42.7103 26.2267 42.5236 25.7733 42.1503 25.48C41.8036 25.16 41.3103 25 40.6703 25C39.9503 25 39.2303 25.2267 38.5103 25.68C37.7903 26.1333 37.1503 26.76 36.5903 27.56C36.057 28.36 35.6703 29.2933 35.4303 30.36H36.3103ZM53.2347 43L50.5547 21.16H56.3147L57.1947 32.6C57.2214 32.92 57.2347 33.3467 57.2347 33.88C57.2614 34.4133 57.2747 34.9733 57.2747 35.56C57.3014 36.12 57.3147 36.64 57.3147 37.12H57.5147C57.6747 36.6667 57.848 36.1733 58.0347 35.64C58.248 35.08 58.4614 34.5467 58.6747 34.04C58.888 33.5067 59.0747 33.08 59.2347 32.76L65.0347 21.16H71.3547L59.5547 43H53.2347Z" fill="#222222"/>
</svg>
